<?xml version="1.0" encoding="utf-8"?>
<!-- Generator: Adobe Illustrator 25.0.0, SVG Export Plug-In . SVG Version: 6.00 Build 0)  -->
<svg version="1.1" id="Capa_1" xmlns="http://www.w3.org/2000/svg" xmlns:xlink="http://www.w3.org/1999/xlink" x="0px" y="0px"
	 viewBox="0 0 200 200" style="enable-background:new 0 0 200 200;" xml:space="preserve">
<style type="text/css">
	.st0{fill:#FFFFFF;}
</style>
<g>
	<path d="M95.21,16.18c3.31,0,6.61,0,9.92,0c1.2,0.13,2.39,0.27,3.59,0.4c16.79,1.85,31.85,7.93,44.91,18.68
		c16.13,13.29,26.13,30.25,29.87,50.84c0.59,3.23,0.89,6.51,1.33,9.77c0,3.42,0,6.83,0,10.25c-0.1,0.47-0.26,0.94-0.3,1.42
		c-1.23,15.82-6.43,30.24-15.87,42.95c-15.59,20.97-36.49,32.69-62.63,34.72c-15.99,1.24-31.13-2-45.29-9.5
		c-15.21-8.05-26.95-19.68-35.13-34.86c-8.21-15.23-11.37-31.51-9.65-48.67c1.69-16.82,7.93-31.87,18.71-44.91
		c13.27-16.07,30.21-26.04,50.74-29.77C88.65,16.92,91.94,16.62,95.21,16.18z M99.61,155.24c4.29-0.63,8.66-0.94,12.86-1.94
		c10.84-2.59,20.09-8.07,27.52-16.39c11.81-13.22,16.37-28.69,13.56-46.18c-2.04-12.65-8.27-23.1-17.67-31.7
		c-2.85-2.61-7.22-2.52-9.87,0.15c-2.81,2.82-2.93,7.05-0.23,9.96c1.35,1.45,2.89,2.74,4.17,4.24c9.29,10.91,11.99,23.38,8.58,37.2
		c-3.9,15.79-18.68,28.33-34.89,29.67c-14.04,1.16-25.74-3.6-35.03-14.16C57,112.92,55.75,92.15,65.83,77.77
		c2.32-3.31,5.28-6.17,8.01-9.18c2.7-2.97,2.8-6.96,0.15-9.84c-2.56-2.79-6.91-3.09-9.84-0.57c-4.58,3.94-8.5,8.48-11.61,13.68
		c-6.81,11.39-9.37,23.64-7.26,36.79c1.96,12.23,7.45,22.65,16.41,31.12C72.27,149.76,84.95,154.78,99.61,155.24z M91.96,56.36
		c0,3.74-0.08,7.49,0.04,11.23c0.05,1.45,0.31,2.99,0.9,4.3c1.49,3.31,5.19,5.04,8.62,4.3c3.89-0.84,6.36-3.78,6.42-8.08
		c0.1-7.81,0.06-15.63,0.01-23.44c-0.02-3.01-1.25-5.44-3.89-7.02c-5.44-3.25-11.92,0.57-12.08,7.16
		C91.89,48.66,91.97,52.51,91.96,56.36z"/>
	<path class="st0" d="M95.21,16.18c-3.27,0.44-6.55,0.74-9.79,1.33c-20.54,3.73-37.47,13.7-50.74,29.77
		C23.89,60.33,17.65,75.38,15.96,92.2c-1.73,17.16,1.44,33.44,9.65,48.67c8.18,15.18,19.92,26.8,35.13,34.86
		c14.16,7.5,29.29,10.74,45.29,9.5c26.14-2.03,47.04-13.75,62.63-34.72c9.44-12.71,14.65-27.13,15.87-42.95
		c0.04-0.48,0.2-0.95,0.3-1.42c0,26.57,0,53.13,0,79.7c-56.55,0-113.1,0-169.64,0c0-56.55,0-113.1,0-169.64
		C41.85,16.18,68.53,16.18,95.21,16.18z"/>
	<path class="st0" d="M184.82,95.87c-0.44-3.26-0.74-6.54-1.33-9.77c-3.74-20.59-13.74-37.55-29.87-50.84
		c-13.06-10.75-28.12-16.83-44.91-18.68c-1.2-0.13-2.39-0.27-3.59-0.4c26.57,0,53.13,0,79.7,0
		C184.82,42.74,184.82,69.31,184.82,95.87z"/>
	<path class="st0" d="M99.61,155.24c-14.65-0.46-27.33-5.49-37.91-15.49c-8.96-8.47-14.46-18.89-16.41-31.12
		c-2.11-13.16,0.46-25.41,7.26-36.79c3.1-5.19,7.02-9.74,11.61-13.68c2.93-2.52,7.28-2.21,9.84,0.57c2.65,2.88,2.54,6.87-0.15,9.84
		c-2.73,3.01-5.7,5.87-8.01,9.18C55.75,92.15,57,112.92,68.6,126.09c9.3,10.55,20.99,15.32,35.03,14.16
		c16.21-1.34,30.99-13.87,34.89-29.67c3.41-13.82,0.72-26.3-8.58-37.2c-1.28-1.5-2.82-2.79-4.17-4.24c-2.7-2.91-2.58-7.14,0.23-9.96
		c2.65-2.66,7.02-2.75,9.87-0.15c9.4,8.61,15.63,19.06,17.67,31.7c2.81,17.49-1.75,32.96-13.56,46.18
		c-7.43,8.33-16.69,13.8-27.52,16.39C108.27,154.31,103.9,154.62,99.61,155.24z"/>
	<path class="st0" d="M91.96,56.36c0-3.85-0.08-7.71,0.02-11.56c0.16-6.59,6.64-10.41,12.08-7.16c2.64,1.58,3.87,4.01,3.89,7.02
		c0.04,7.81,0.09,15.63-0.01,23.44c-0.05,4.3-2.53,7.23-6.42,8.08c-3.43,0.74-7.13-0.99-8.62-4.3c-0.59-1.31-0.85-2.85-0.9-4.3
		C91.88,63.85,91.96,60.11,91.96,56.36z"/>
</g>
</svg>
